/* XPM */
static char *_8d7717387da447195bbe32d524c41ec[] = {
/* columns rows colors chars-per-pixel */
"16 16 2 1 ",
"  c gray100",
". c None",
/* pixels */
"................",
"................",
"................",
"................",
"................",
"................",
"................",
"..  ...  ...  ..",
"..  ...  ...  ..",
"................",
"................",
"................",
"................",
"................",
"................",
"................"
};
