/* XPM */
static char *_5061e482b794581ab6089053834b259[] = {
/* columns rows colors chars-per-pixel */
"64 64 2 1 ",
"  c gray100",
". c None",
/* pixels */
"................................................................",
"................................................................",
"................................................................",
"................................................................",
"................................................................",
"................................................................",
"................................................................",
"................................................................",
"................................................................",
"................................................................",
"................................................................",
"................................................................",
"................................................................",
"................................................................",
"................................................................",
"................................................................",
"................................................................",
"................................................................",
"................................................................",
"................................................................",
"................................................................",
"................................................................",
"................................................................",
"................................................................",
"................................................................",
"................................................................",
"................................................................",
"...............     .........      ..........     ..............",
"..............        ......        ........        ............",
".............         .....          ......         ............",
".............          ....          ......          ...........",
"............           ....          .....           ...........",
"............           ....          .....           ...........",
".............          ....          ......          ...........",
".............         .....          ......         ............",
"..............        ......        ........        ............",
"...............     .........      ..........     ..............",
"................................................................",
"................................................................",
"................................................................",
"................................................................",
"................................................................",
"................................................................",
"................................................................",
"................................................................",
"................................................................",
"................................................................",
"................................................................",
"................................................................",
"................................................................",
"................................................................",
"................................................................",
"................................................................",
"................................................................",
"................................................................",
"................................................................",
"................................................................",
"................................................................",
"................................................................",
"................................................................",
"................................................................",
"................................................................",
"................................................................",
"................................................................"
};
