/* XPM */
static char *_8ccafa9ad184624a786372b16001399[] = {
/* columns rows colors chars-per-pixel */
"32 32 2 1 ",
"  c gray100",
". c None",
/* pixels */
"................................",
"................................",
"................................",
"................................",
"................................",
"................................",
"................................",
"................................",
"................................",
"................................",
"................................",
"................................",
"................................",
".......  ......  ......  .......",
"......    ....    ....    ......",
".....     ...      ...     .....",
".....     ...      ...     .....",
"......    ....    ....    ......",
".......  ......  ......  .......",
"................................",
"................................",
"................................",
"................................",
"................................",
"................................",
"................................",
"................................",
"................................",
"................................",
"................................",
"................................",
"................................"
};
